Coordinates
version=1
nRows=17
nColumns=36
inDegrees=yes

Units are S.I. units (second, meters, Newtons, ...)
If the header above contains a line with 'inDegrees', this indicates whether rotational values are in degrees (yes) or radians (no).

endheader
time	pelvis_tilt	pelvis_list	pelvis_rotation	pelvis_tx	pelvis_ty	pelvis_tz	hip_flexion_r	hip_adduction_r	hip_rotation_r	knee_angle_r	knee_angle_r_beta	ankle_angle_r	subtalar_angle_r	mtp_angle_r	hip_flexion_l	hip_adduction_l	hip_rotation_l	knee_angle_l	knee_angle_l_beta	ankle_angle_l	subtalar_angle_l	mtp_angle_l	lumbar_extension	lumbar_bending	lumbar_rotation	arm_flex_r	arm_add_r	arm_rot_r	elbow_flex_r	pro_sup_r	arm_flex_l	arm_add_l	arm_rot_l	elbow_flex_l	pro_sup_l
      1.06000000	     -1.62817491	     -2.07030924	      5.07072691	      1.13398431	      0.95591972	     -0.23753834	     25.11938242	      0.23823070	     -4.04119503	      8.28132436	      0.14453638	     -0.30263951	     -3.77417327	     -7.19145921	     -7.90671274	     -3.18746267	     -5.17994267	      5.26032132	      0.09180993	     18.74532941	     12.33965757	     -7.19145921	    -12.15722043	    -13.09250504	     -9.68079477	      2.32777866	     -6.18099013	     -0.69821690	     42.65930605	    105.57479224	     24.65645230	     -8.74642413	      8.79663322	     42.01965541	    101.90854178
      1.07000000	     -1.61501331	     -1.88642743	      5.10892391	      1.14493863	      0.95377127	     -0.23765556	     24.90149351	     -0.15663910	     -3.01417382	      5.39152872	      0.09409993	     -1.22193555	     -3.06975983	     -7.20791044	     -8.82990218	     -3.08877759	     -5.78278393	      4.98665594	      0.08703356	     19.34218704	     13.50702663	     -7.20791044	    -12.23637038	    -12.74408178	     -9.73028262	      1.90532512	     -6.39551499	     -1.44528229	     42.70711116	    105.49304856	     25.55991212	     -8.80134475	     10.90209505	     41.78536840	    101.91112092
      1.08000000	     -1.94396558	     -1.60331432	      5.11882809	      1.15597064	      0.95104502	     -0.23771409	     25.29345110	     -0.72982921	     -2.47706999	      3.28888992	      0.05740196	     -1.21299716	     -2.18976909	     -7.21000092	     -9.32164298	     -2.81251319	     -5.83164849	      4.86961750	      0.08499086	     19.62371632	     13.58706558	     -7.21000092	    -11.86331149	    -12.55550038	    -10.04131476	      1.63434600	     -6.62790357	     -1.62462034	     42.50127786	    105.46300624	     25.90493657	     -8.66814330	     11.22746186	     42.06482479	    101.94281390
      1.09000000	     -2.13848480	     -1.40155933	      5.09614040	      1.16704424	      0.94847321	     -0.23759264	     25.61702824	     -1.17920813	     -1.90089740	      1.70448367	      0.02974885	     -1.09551432	     -1.09654173	     -7.21269184	     -9.93025152	     -2.64968314	     -5.86238688	      4.81592027	      0.08405367	     19.94878047	     13.71227098	     -7.21269184	    -11.67250848	    -12.23893869	    -10.31136589	      1.48489239	     -6.85337410	     -1.86463213	     42.28821656	    105.42468534	     26.30338478	     -8.61946624	     11.80890340	     42.32348216	    101.99283868
      1.10000000	     -2.29849273	     -1.19781963	      5.08764232	      1.17830634	      0.94592407	     -0.23731569	     26.16548637	     -1.63938553	     -2.38054311	      1.08465011	      0.01893072	      0.23915515	      1.20460063	     -7.22307498	    -10.49821041	     -2.52214458	     -6.06904620	      4.92101844	      0.08588797	     20.36672822	     14.04213078	     -7.22307498	    -11.50260287	    -11.95273022	    -10.33826112	      1.17013803	     -7.02963471	     -2.43634319	     42.16873599	    105.36192199	     26.95310867	     -8.70058691	     13.49104833	     42.20750891	    102.02221910
      1.11000000	     -2.45152504	     -1.07925278	      5.07044656	      1.18967590	      0.94345017	     -0.23691188	     26.66805274	     -1.92196956	     -2.32091633	      0.81314407	      0.01419204	      0.38877567	      1.28438578	     -7.22350998	    -11.05187760	     -2.48255950	     -6.10696055	      5.04798603	      0.08810398	     20.40132431	     14.02968746	     -7.22350998	    -11.35181125	    -11.52736694	    -10.56850369	      1.04871273	     -7.29952477	     -2.53135587	     42.04919114	    105.34749937	     27.24513275	     -8.55713546	     13.56196691	     42.34511801	    102.03691247
      1.12000000	     -2.65127316	     -1.16999617	      5.08890737	      1.20145894	      0.94095429	     -0.23624339	     27.02918663	     -1.95213752	     -2.00506628	      0.70303260	      0.01227023	      1.20404673	      1.64924342	     -7.22541999	    -11.44776398	     -2.71991634	     -6.00544348	      5.42233224	      0.09463755	     20.65870354	     13.92835326	     -7.22541999	    -11.05770370	    -10.92673054	    -10.62223681	      0.83572507	     -7.49309487	     -2.74966354	     41.78057157	    105.31425695	     27.46308659	     -8.40756590	     13.97403866	     42.56794568	    102.08743179
      1.13000000	     -2.74399698	     -1.11132779	      5.13825266	      1.21358460	      0.93879175	     -0.23558638	     27.17683518	     -2.10989570	     -1.88384808	      0.84091834	      0.01467679	      1.30303837	      1.67535586	     -7.22581111	    -12.02271086	     -2.79164223	     -6.00263909	      5.66267250	      0.09883228	     20.67321631	     13.89381780	     -7.22581111	    -10.88220171	    -10.45663286	    -10.84731977	      0.64578028	     -7.70951677	     -2.85518467	     41.64015122	    105.29659585	     27.56491866	     -8.32622331	     14.08646052	     42.64559741	    102.10550075
      1.14000000	     -2.70724123	     -1.44368365	      5.28287501	      1.22583047	      0.93688689	     -0.23465559	     27.06773814	     -1.81910103	     -1.65678414	      1.21718756	      0.02124393	      1.71011916	      1.08314343	     -7.24245917	    -12.47656069	     -3.39898575	     -6.08175600	      6.39214249	      0.11156393	     21.04817234	     13.75824866	     -7.24245917	    -10.88694014	     -9.54193629	    -10.78412279	      0.38587290	     -7.76426154	     -3.81277516	     41.61261044	    105.17859645	     28.00891388	     -8.37146560	     15.70970622	     42.44891193	    102.24665430
      1.15000000	     -2.65623135	     -1.76028697	      5.38815716	      1.23836144	      0.93520672	     -0.23355317	     26.90100790	     -1.47991967	     -1.30857720	      1.81781426	      0.03172684	      1.03839791	     -0.29988618	     -7.25153710	    -12.99007685	     -3.97409138	     -6.04595479	      7.04570755	      0.12297079	     21.10141047	     13.57075379	     -7.25153710	    -10.86313437	     -8.63744356	    -10.96383703	      0.31599231	     -7.89378317	     -4.15780001	     41.42977132	    105.07988436	     27.94194666	     -8.39263899	     15.86705743	     42.74566557	    102.29868303
      1.16000000	     -2.54394286	     -2.15686691	      5.48509496	      1.25118375	      0.93379735	     -0.23235117	     26.70642427	     -1.03194066	     -1.40574434	      2.75382732	      0.04806335	      0.54859963	     -1.12738445	     -7.25421607	    -13.52456546	     -4.65191527	     -6.21043073	      7.77892870	      0.13576792	     20.87772225	     13.27036277	     -7.25421607	    -10.87175526	     -7.64166182	    -11.03869002	      0.26892626	     -8.08369960	     -4.35331835	     41.21029986	    105.00879664	     27.82933522	     -8.26553548	     15.97114336	     42.92716419	    102.33847996
      1.17000000	     -2.48143574	     -2.59990124	      5.59576523	      1.26406775	      0.93252336	     -0.23080918	     26.43262436	     -0.45470233	     -0.78438939	      3.53432204	      0.06168556	     -1.39320270	     -3.67361599	     -7.26597451	    -13.89998489	     -5.41316637	     -6.25655733	      8.69753296	      0.15180059	     20.67499969	     12.99416949	     -7.26597451	    -10.84125733	     -6.62273180	    -11.17824205	      0.25942494	     -8.12667155	     -4.77424415	     41.04550039	    104.70025311	     27.55332565	     -8.27369220	     15.90430867	     43.29409868	    102.44795446
      1.18000000	     -2.29013341	     -3.10916926	      5.75148782	      1.27718804	      0.93166170	     -0.22925786	     26.10304500	      0.14961294	     -1.17593190	      4.57001525	      0.07976181	     -2.37221195	     -4.25597682	     -7.26826668	    -14.31871123	     -6.28133554	     -6.40680391	      9.76966480	      0.17051282	     20.21177161	     12.58628765	     -7.26826668	    -10.94944234	     -5.50684488	    -11.24064640	      0.25421615	     -8.26476608	     -4.97919767	     40.80958275	    104.59922416	     27.32610064	     -8.21703091	     15.99406694	     43.44270609	    102.49126141
      1.19000000	     -2.09142661	     -3.68826622	      5.96021857	      1.29042860	      0.93106997	     -0.22752237	     25.68318642	      0.84376823	     -1.61377192	      5.41417928	      0.09449525	     -3.90457936	     -5.09203228	     -7.27111226	    -14.58390993	     -7.26716663	     -6.43380901	     11.10619596	      0.19383969	     19.63213647	     12.05656632	     -7.27111226	    -11.05012613	     -4.32095281	    -11.36455438	      0.29198998	     -8.30986360	     -5.29518441	     40.57926225	    104.45228117	     26.96677384	     -8.25474997	     16.03644544	     43.64336960	    102.54384944
      1.20000000	     -1.88801917	     -4.29218392	      6.20872666	      1.30374714	      0.93073763	     -0.22565462	     25.19100695	      1.59099377	     -1.89972125	      6.12552264	      0.10691054	     -5.64640587	     -6.19454473	     -7.27492073	    -14.71988433	     -8.29655895	     -6.26121229	     12.63738402	      0.22056396	     18.88954089	     11.32685540	     -7.27492073	    -11.15298525	     -3.12088193	    -11.51635527	      0.37556082	     -8.24868162	     -5.65504708	     40.35682538	    104.25808313	     26.50871694	     -8.26287346	     16.02894625	     43.89445634	    102.61082908
      1.21000000	     -1.63920971	     -4.89808520	      6.46622692	      1.31714143	      0.93070195	     -0.22361379	     24.65274797	      2.37262510	     -2.20048397	      6.86343836	      0.11978960	     -6.98132550	     -7.15824439	     -7.27843951	    -14.72454434	     -9.34474805	     -5.97045924	     14.45949235	      0.25236575	     17.89835466	     10.39007230	     -7.27843951	    -11.30564923	     -1.93651030	    -11.61038353	      0.43072315	     -8.20460438	     -5.98066093	     40.10922797	    104.07958980	     26.04636979	     -8.34171140	     16.02413595	     44.10164378	    102.67628753
      1.22000000	     -1.35439794	     -5.48165014	      6.72664485	      1.33052585	      0.93095690	     -0.22143411	     24.08769711	      3.16088879	     -2.58567931	      7.64737815	      0.13347193	     -7.81931085	     -7.96492800	     -7.28129334	    -14.53568028	    -10.37759063	     -5.55411101	     16.64358631	      0.29048538	     16.66135142	      9.28030192	     -7.28129334	    -11.51884524	     -0.78765739	    -11.62097383	      0.52366817	     -8.12709671	     -6.27287965	     39.86420348	    103.93385847	     25.52979696	     -8.43212264	     16.07742784	     44.27096651	    102.73910852
